<?xml version="1.0" encoding="UTF-8"?>
<!DOCTYPE svg PUBLIC "-//W3C//DTD SVG 1.1//EN" "http://www.w3.org/Graphics/SVG/1.1/DTD/svg11.dtd">
<svg xmlns="http://www.w3.org/2000/svg" version="1.1" width="1099px" height="960px" style="shape-rendering:geometricPrecision; text-rendering:geometricPrecision; image-rendering:optimizeQuality; fill-rule:evenodd; clip-rule:evenodd" xmlns:xlink="http://www.w3.org/1999/xlink">
<g><path style="opacity:1" fill="#fdc435" d="M 170.5,-0.5 C 479.833,-0.5 789.167,-0.5 1098.5,-0.5C 1098.5,243.167 1098.5,486.833 1098.5,730.5C 1096.95,730.821 1096.29,731.821 1096.5,733.5C 1095.83,733.5 1095.5,733.833 1095.5,734.5C 1092.74,735.948 1091.07,738.281 1090.5,741.5C 1090.5,742.167 1090.17,742.5 1089.5,742.5C 1088.09,742.973 1087.43,743.973 1087.5,745.5C 1087.67,746.492 1087.34,747.158 1086.5,747.5C 1085.17,747.5 1084.5,748.167 1084.5,749.5C 1084.5,750.167 1084.17,750.5 1083.5,750.5C 1082.09,750.973 1081.43,751.973 1081.5,753.5C 1080.17,754.167 1079.17,755.167 1078.5,756.5C 1078.5,756.833 1078.5,757.167 1078.5,757.5C 1076.55,758.035 1075.55,759.368 1075.5,761.5C 1075.5,762.167 1075.17,762.5 1074.5,762.5C 1073.5,762.833 1072.83,763.5 1072.5,764.5C 1072.5,764.833 1072.5,765.167 1072.5,765.5C 1069.03,765.968 1067.37,767.968 1067.5,771.5C 1065.17,774.167 1062.83,776.833 1060.5,779.5C 1058.5,779.5 1057.5,780.5 1057.5,782.5C 1055.5,782.5 1054.5,783.5 1054.5,785.5C 1053.17,785.5 1052.5,786.167 1052.5,787.5C 1052.5,788.167 1052.17,788.5 1051.5,788.5C 1050.5,788.833 1049.83,789.5 1049.5,790.5C 1049.5,791.167 1049.17,791.5 1048.5,791.5C 1047.5,791.833 1046.83,792.5 1046.5,793.5C 1046.5,793.833 1046.5,794.167 1046.5,794.5C 1044.97,794.427 1043.97,795.094 1043.5,796.5C 1043.5,796.833 1043.5,797.167 1043.5,797.5C 1041.97,797.427 1040.97,798.094 1040.5,799.5C 1040.5,799.833 1040.5,800.167 1040.5,800.5C 1039.17,800.5 1038.5,801.167 1038.5,802.5C 1037.83,802.5 1037.5,802.833 1037.5,803.5C 1036.17,803.5 1035.5,804.167 1035.5,805.5C 1034.83,805.5 1034.5,805.833 1034.5,806.5C 1033.17,806.5 1032.5,807.167 1032.5,808.5C 1031.47,809.853 1030.14,810.853 1028.5,811.5C 1026.5,811.5 1025.5,812.5 1025.5,814.5C 1024.17,814.5 1023.5,815.167 1023.5,816.5C 1021.5,818.167 1019.5,819.833 1017.5,821.5C 1015.97,821.427 1014.97,822.094 1014.5,823.5C 1012.86,823.81 1011.86,824.81 1011.5,826.5C 1009.97,826.427 1008.97,827.094 1008.5,828.5C 1007.83,829.833 1006.83,830.833 1005.5,831.5C 1003.21,832.136 1001.54,833.469 1000.5,835.5C 998.973,835.427 997.973,836.094 997.5,837.5C 995.81,837.856 994.81,838.856 994.5,840.5C 994.167,840.5 993.833,840.5 993.5,840.5C 992.5,840.833 991.833,841.5 991.5,842.5C 989.205,843.136 987.539,844.469 986.5,846.5C 985.833,846.5 985.5,846.833 985.5,847.5C 983.973,847.427 982.973,848.094 982.5,849.5C 980.973,849.427 979.973,850.094 979.5,851.5C 979.5,852.167 979.167,852.5 978.5,852.5C 977.167,852.5 976.5,853.167 976.5,854.5C 976.158,855.338 975.492,855.672 974.5,855.5C 972.973,855.427 971.973,856.094 971.5,857.5C 971.5,858.167 971.167,858.5 970.5,858.5C 967.296,859.383 964.629,861.05 962.5,863.5C 962.5,863.833 962.5,864.167 962.5,864.5C 960.821,864.285 959.821,864.952 959.5,866.5C 959.167,866.5 958.833,866.5 958.5,866.5C 956.545,866.799 955.211,867.799 954.5,869.5C 954.5,870.167 954.167,870.5 953.5,870.5C 951.821,870.285 950.821,870.952 950.5,872.5C 948.973,872.427 947.973,873.094 947.5,874.5C 946.71,875.401 945.71,876.068 944.5,876.5C 942.973,876.427 941.973,877.094 941.5,878.5C 941.167,878.5 940.833,878.5 940.5,878.5C 938.545,878.799 937.211,879.799 936.5,881.5C 934.973,881.427 933.973,882.094 933.5,883.5C 932.71,884.401 931.71,885.068 930.5,885.5C 928.821,885.285 927.821,885.952 927.5,887.5C 925.821,887.285 924.821,887.952 924.5,889.5C 923.833,889.833 923.167,890.167 922.5,890.5C 918.654,890.734 915.654,892.401 913.5,895.5C 913.5,896.167 913.167,896.5 912.5,896.5C 910.62,896.229 909.287,896.896 908.5,898.5C 908.167,898.5 907.833,898.5 907.5,898.5C 905.81,898.856 904.81,899.856 904.5,901.5C 903.391,901.557 902.391,901.89 901.5,902.5C 899.821,902.285 898.821,902.952 898.5,904.5C 898.167,904.5 897.833,904.5 897.5,904.5C 895.152,904.592 893.486,905.592 892.5,907.5C 892.167,907.5 891.833,907.5 891.5,907.5C 889.368,907.554 888.035,908.554 887.5,910.5C 887.167,910.5 886.833,910.5 886.5,910.5C 884.152,910.592 882.486,911.592 881.5,913.5C 881.167,913.5 880.833,913.5 880.5,913.5C 878.152,913.592 876.486,914.592 875.5,916.5C 875.167,916.5 874.833,916.5 874.5,916.5C 872.62,916.229 871.287,916.896 870.5,918.5C 870.167,918.5 869.833,918.5 869.5,918.5C 866.198,918.912 863.531,920.245 861.5,922.5C 859.821,922.285 858.821,922.952 858.5,924.5C 857.609,925.11 856.609,925.443 855.5,925.5C 853.302,925.12 851.635,925.787 850.5,927.5C 849.833,927.833 849.167,928.167 848.5,928.5C 846.219,928.077 844.552,928.744 843.5,930.5C 843.167,930.5 842.833,930.5 842.5,930.5C 840.152,930.592 838.486,931.592 837.5,933.5C 836.5,933.5 835.5,933.5 834.5,933.5C 831.895,933.621 829.895,934.621 828.5,936.5C 827.833,936.5 827.167,936.5 826.5,936.5C 823.539,936.464 821.206,937.464 819.5,939.5C 818.833,939.5 818.167,939.5 817.5,939.5C 814.458,939.733 811.792,940.733 809.5,942.5C 809.167,942.5 808.833,942.5 808.5,942.5C 806.447,942.402 804.78,943.069 803.5,944.5C 801.958,945.301 800.292,945.634 798.5,945.5C 796.517,945.157 795.183,945.824 794.5,947.5C 792.5,947.833 790.5,948.167 788.5,948.5C 785.918,948.025 783.918,948.692 782.5,950.5C 780.5,950.833 778.5,951.167 776.5,951.5C 772.798,951.421 769.132,951.754 765.5,952.5C 763.97,952.64 762.97,953.307 762.5,954.5C 758.029,953.911 754.029,954.577 750.5,956.5C 749.167,956.5 747.833,956.5 746.5,956.5C 740,956.936 733.666,957.602 727.5,958.5C 713.154,958.575 698.821,958.242 684.5,957.5C 681.5,957.5 678.5,957.5 675.5,957.5C 671.5,957.167 667.5,956.833 663.5,956.5C 662.167,956.5 660.833,956.5 659.5,956.5C 655.608,954.647 651.275,953.647 646.5,953.5C 645.833,953.5 645.167,953.5 644.5,953.5C 641.619,951.32 638.286,950.32 634.5,950.5C 634.389,949.883 634.056,949.383 633.5,949C 631.527,948.505 629.527,948.338 627.5,948.5C 626.292,947.766 624.959,947.433 623.5,947.5C 623.179,945.952 622.179,945.285 620.5,945.5C 619.105,943.621 617.105,942.621 614.5,942.5C 614.167,942.5 613.833,942.5 613.5,942.5C 612.599,940.273 610.933,939.273 608.5,939.5C 607.209,939.737 606.209,939.404 605.5,938.5C 604.71,937.599 603.71,936.932 602.5,936.5C 601.341,934.75 599.674,933.75 597.5,933.5C 597.167,933.5 596.833,933.5 596.5,933.5C 595.738,931.738 594.404,930.738 592.5,930.5C 592.167,930.5 591.833,930.5 591.5,930.5C 591.179,928.952 590.179,928.285 588.5,928.5C 588.5,927.833 588.167,927.5 587.5,927.5C 586.008,924.677 583.674,923.01 580.5,922.5C 579.833,922.5 579.5,922.167 579.5,921.5C 579.027,920.094 578.027,919.427 576.5,919.5C 576.19,917.856 575.19,916.856 573.5,916.5C 572.738,914.738 571.404,913.738 569.5,913.5C 567.859,912.853 566.526,911.853 565.5,910.5C 565.5,908.5 564.5,907.5 562.5,907.5C 562.5,905.5 561.5,904.5 559.5,904.5C 559.5,902.5 558.5,901.5 556.5,901.5C 556.179,899.952 555.179,899.285 553.5,899.5C 553.5,899.167 553.5,898.833 553.5,898.5C 553.179,896.952 552.179,896.285 550.5,896.5C 550.5,896.167 550.5,895.833 550.5,895.5C 550.5,894.167 549.833,893.5 548.5,893.5C 547.833,893.5 547.5,893.167 547.5,892.5C 547.5,891.167 546.833,890.5 545.5,890.5C 544.833,890.5 544.5,890.167 544.5,889.5C 544.269,886.937 542.935,885.27 540.5,884.5C 536.465,880.8 532.798,876.8 529.5,872.5C 529.715,870.821 529.048,869.821 527.5,869.5C 527.5,867.5 526.5,866.5 524.5,866.5C 524.5,866.167 524.5,865.833 524.5,865.5C 524.144,863.81 523.144,862.81 521.5,862.5C 521.5,862.167 521.5,861.833 521.5,861.5C 521.144,859.81 520.144,858.81 518.5,858.5C 518.446,856.368 517.446,855.035 515.5,854.5C 515.446,852.368 514.446,851.035 512.5,850.5C 509.484,847.48 506.817,844.146 504.5,840.5C 504.573,838.973 503.906,837.973 502.5,837.5C 501.662,837.158 501.328,836.492 501.5,835.5C 501.144,833.81 500.144,832.81 498.5,832.5C 498.5,832.167 498.5,831.833 498.5,831.5C 497.864,829.205 496.531,827.539 494.5,826.5C 493.094,826.027 492.427,825.027 492.5,823.5C 492.573,821.973 491.906,820.973 490.5,820.5C 489.833,820.5 489.5,820.167 489.5,819.5C 489.5,818.167 488.833,817.5 487.5,817.5C 485.782,815.777 484.449,813.777 483.5,811.5C 483.371,808.13 481.705,806.13 478.5,805.5C 477.662,805.158 477.328,804.492 477.5,803.5C 477.573,801.973 476.906,800.973 475.5,800.5C 475.144,798.81 474.144,797.81 472.5,797.5C 472.5,797.167 472.5,796.833 472.5,796.5C 472.019,793.603 470.352,791.936 467.5,791.5C 466.89,790.609 466.557,789.609 466.5,788.5C 466.144,786.81 465.144,785.81 463.5,785.5C 463.573,783.973 462.906,782.973 461.5,782.5C 460.833,782.5 460.5,782.167 460.5,781.5C 460.5,779.5 459.5,778.5 457.5,778.5C 457.5,778.167 457.5,777.833 457.5,777.5C 457.5,775.5 456.5,774.5 454.5,774.5C 454.5,774.167 454.5,773.833 454.5,773.5C 454.5,772.167 453.833,771.5 452.5,771.5C 451.833,771.5 451.5,771.167 451.5,770.5C 450.581,765.916 447.914,762.916 443.5,761.5C 443.33,758.796 441.997,757.129 439.5,756.5C 437.433,754.773 435.767,752.773 434.5,750.5C 434.064,747.648 432.397,745.981 429.5,745.5C 428.833,745.5 428.5,745.167 428.5,744.5C 428.5,743.167 427.833,742.5 426.5,742.5C 425.833,742.5 425.5,742.167 425.5,741.5C 425.5,739.5 424.5,738.5 422.5,738.5C 422.5,737.167 421.833,736.5 420.5,736.5C 419.833,736.5 419.5,736.167 419.5,735.5C 418.871,733.003 417.204,731.67 414.5,731.5C 412.833,730.5 411.5,729.167 410.5,727.5C 409.022,724.589 406.689,722.589 403.5,721.5C 403.167,721.5 402.833,721.5 402.5,721.5C 402.5,719.5 401.5,718.5 399.5,718.5C 399.179,716.952 398.179,716.285 396.5,716.5C 396.19,714.856 395.19,713.856 393.5,713.5C 392.341,711.75 390.674,710.75 388.5,710.5C 387.738,708.738 386.404,707.738 384.5,707.5C 382.326,707.25 380.659,706.25 379.5,704.5C 378.514,702.592 376.848,701.592 374.5,701.5C 374.167,701.5 373.833,701.5 373.5,701.5C 372.965,699.554 371.632,698.554 369.5,698.5C 368.508,698.672 367.842,698.338 367.5,697.5C 366.313,695.025 364.313,694.025 361.5,694.5C 360.486,693.326 359.153,692.66 357.5,692.5C 357.167,692.5 356.833,692.5 356.5,692.5C 356.027,691.094 355.027,690.427 353.5,690.5C 351.824,688.166 349.491,687.166 346.5,687.5C 345.167,687.167 343.833,686.833 342.5,686.5C 342.027,685.094 341.027,684.427 339.5,684.5C 339.167,684.5 338.833,684.5 338.5,684.5C 336.718,682.643 334.385,681.643 331.5,681.5C 326.824,680.939 322.491,679.606 318.5,677.5C 317.07,676.463 315.403,675.796 313.5,675.5C 311.901,675.768 310.568,675.434 309.5,674.5C 307.698,673.542 305.698,672.875 303.5,672.5C 302.167,672.5 300.833,672.5 299.5,672.5C 299.389,671.883 299.056,671.383 298.5,671C 296.134,670.56 293.801,670.06 291.5,669.5C 290.833,669.5 290.167,669.5 289.5,669.5C 289.389,668.883 289.056,668.383 288.5,668C 285.207,667.174 281.874,666.674 278.5,666.5C 278.167,666.5 277.833,666.5 277.5,666.5C 277.389,665.883 277.056,665.383 276.5,665C 272.83,664.452 269.163,663.952 265.5,663.5C 263.833,663.5 262.167,663.5 260.5,663.5C 259.082,661.692 257.082,661.025 254.5,661.5C 252.139,661.326 249.806,660.993 247.5,660.5C 245.562,658.837 243.228,658.171 240.5,658.5C 240.389,657.883 240.056,657.383 239.5,657C 236.456,656.637 233.456,656.137 230.5,655.5C 228.833,655.5 227.167,655.5 225.5,655.5C 223.012,653.612 220.012,652.945 216.5,653.5C 213.873,652.908 211.206,652.575 208.5,652.5C 205.43,652.632 202.43,652.299 199.5,651.5C 197.898,649.926 195.898,649.259 193.5,649.5C 192.5,649.5 191.5,649.5 190.5,649.5C 186.79,647.855 182.79,646.855 178.5,646.5C 177.5,646.5 176.5,646.5 175.5,646.5C 175.082,645.778 174.416,645.278 173.5,645C 169.83,644.452 166.163,643.952 162.5,643.5C 160.265,643.795 158.265,643.461 156.5,642.5C 154.485,641.076 152.152,640.41 149.5,640.5C 148.167,640.5 146.833,640.5 145.5,640.5C 145.389,639.883 145.056,639.383 144.5,639C 142.134,638.56 139.801,638.06 137.5,637.5C 136.167,637.5 134.833,637.5 133.5,637.5C 131.718,635.643 129.385,634.643 126.5,634.5C 125.833,634.5 125.167,634.5 124.5,634.5C 123.01,632.72 121.01,632.054 118.5,632.5C 113.058,629.478 107.058,627.478 100.5,626.5C 98.9103,624.179 96.5769,623.179 93.5,623.5C 93.1667,623.5 92.8333,623.5 92.5,623.5C 92.9175,622.778 93.5842,622.278 94.5,622C 91.8323,621.433 89.1656,620.933 86.5,620.5C 85.209,620.737 84.209,620.404 83.5,619.5C 82.7095,618.599 81.7095,617.932 80.5,617.5C 79.209,617.737 78.209,617.404 77.5,616.5C 76.7095,615.599 75.7095,614.932 74.5,614.5C 71.3583,614.004 68.6916,612.67 66.5,610.5C 66.0269,609.094 65.0269,608.427 63.5,608.5C 63.1667,608.5 62.8333,608.5 62.5,608.5C 61.0525,605.736 58.7191,604.069 55.5,603.5C 54.8333,603.5 54.5,603.167 54.5,602.5C 54.0269,601.094 53.0269,600.427 51.5,600.5C 51.0269,599.094 50.0269,598.427 48.5,598.5C 47.1667,598.5 46.5,597.833 46.5,596.5C 46.0269,595.094 45.0269,594.427 43.5,594.5C 42.8333,594.5 42.5,594.167 42.5,593.5C 42.5,592.167 41.8333,591.5 40.5,591.5C 40.1436,589.81 39.1436,588.81 37.5,588.5C 37.1436,586.81 36.1436,585.81 34.5,585.5C 34.1436,583.81 33.1436,582.81 31.5,582.5C 31.5,580.5 30.5,579.5 28.5,579.5C 26.7497,578.341 25.7497,576.674 25.5,574.5C 25.1436,572.81 24.1436,571.81 22.5,571.5C 22.9118,569.027 21.9118,567.694 19.5,567.5C 19.5,567.167 19.5,566.833 19.5,566.5C 19.4456,564.368 18.4456,563.035 16.5,562.5C 16.6138,559.784 15.6138,557.784 13.5,556.5C 13.7148,554.821 13.0481,553.821 11.5,553.5C 11.5,553.167 11.5,552.833 11.5,552.5C 11.4077,550.152 10.4077,548.486 8.5,547.5C 8.5,546.833 8.5,546.167 8.5,545.5C 8.53577,542.539 7.53577,540.206 5.5,538.5C 5.5,537.833 5.5,537.167 5.5,536.5C 5.48245,533.264 4.48245,530.597 2.5,528.5C 2.5,527.5 2.5,526.5 2.5,525.5C 2.11843,520.908 1.11843,516.575 -0.5,512.5C -0.5,505.167 -0.5,497.833 -0.5,490.5C 1.28194,484.774 2.28194,478.774 2.5,472.5C 2.5,471.5 2.5,470.5 2.5,469.5C 4.44329,467.029 5.44329,464.029 5.5,460.5C 5.5,459.833 5.5,459.167 5.5,458.5C 7.24133,456.605 8.24133,454.272 8.5,451.5C 8.5,450.833 8.5,450.167 8.5,449.5C 10.2451,447.967 11.2451,445.967 11.5,443.5C 11.5,443.167 11.5,442.833 11.5,442.5C 13.821,440.91 14.821,438.577 14.5,435.5C 14.5,435.167 14.5,434.833 14.5,434.5C 16.0481,434.179 16.7148,433.179 16.5,431.5C 18.9689,430.393 19.9689,428.393 19.5,425.5C 21.9754,424.313 22.9754,422.313 22.5,419.5C 24.4077,418.514 25.4077,416.848 25.5,414.5C 25.5,414.167 25.5,413.833 25.5,413.5C 27.4456,412.965 28.4456,411.632 28.5,409.5C 28.5,409.167 28.5,408.833 28.5,408.5C 30.4077,407.514 31.4077,405.848 31.5,403.5C 31.5,403.167 31.5,402.833 31.5,402.5C 33.4456,401.965 34.4456,400.632 34.5,398.5C 36.2624,397.738 37.2624,396.404 37.5,394.5C 37.5,394.167 37.5,393.833 37.5,393.5C 40.8634,391.953 42.53,389.286 42.5,385.5C 44.7964,384.267 46.1298,382.267 46.5,379.5C 47.8333,379.5 48.5,378.833 48.5,377.5C 48.5,377.167 48.5,376.833 48.5,376.5C 50.4456,375.965 51.4456,374.632 51.5,372.5C 51.8333,371.833 52.1667,371.167 52.5,370.5C 53.8333,370.5 54.5,369.833 54.5,368.5C 54.5,368.167 54.5,367.833 54.5,367.5C 56.1436,367.19 57.1436,366.19 57.5,364.5C 57.3284,363.508 57.6618,362.842 58.5,362.5C 59.9063,362.027 60.573,361.027 60.5,359.5C 61.9063,359.027 62.573,358.027 62.5,356.5C 63.1667,356.5 63.5,356.167 63.5,355.5C 65.2624,354.738 66.2624,353.404 66.5,351.5C 66.5,351.167 66.5,350.833 66.5,350.5C 68.1436,350.19 69.1436,349.19 69.5,347.5C 70.9063,347.027 71.573,346.027 71.5,344.5C 73.7409,343.7 74.7409,342.034 74.5,339.5C 75.1667,339.5 75.5,339.167 75.5,338.5C 76.8333,338.5 77.5,337.833 77.5,336.5C 79.2549,333.32 81.2549,330.32 83.5,327.5C 85.1436,327.19 86.1436,326.19 86.5,324.5C 86.3284,323.508 86.6618,322.842 87.5,322.5C 88.9063,322.027 89.573,321.027 89.5,319.5C 90.147,317.859 91.147,316.526 92.5,315.5C 94.4456,314.965 95.4456,313.632 95.5,311.5C 98.3231,310.008 99.9898,307.674 100.5,304.5C 102.822,303.198 104.155,301.198 104.5,298.5C 105.906,298.027 106.573,297.027 106.5,295.5C 108.144,295.19 109.144,294.19 109.5,292.5C 109.557,291.391 109.89,290.391 110.5,289.5C 111.833,289.5 112.5,288.833 112.5,287.5C 112.5,287.167 112.5,286.833 112.5,286.5C 114.144,286.19 115.144,285.19 115.5,283.5C 115.328,282.508 115.662,281.842 116.5,281.5C 117.906,281.027 118.573,280.027 118.5,278.5C 118.5,278.167 118.5,277.833 118.5,277.5C 120.446,276.965 121.446,275.632 121.5,273.5C 121.5,273.167 121.5,272.833 121.5,272.5C 125.404,271.392 127.404,268.725 127.5,264.5C 127.5,264.167 127.5,263.833 127.5,263.5C 129.048,263.179 129.715,262.179 129.5,260.5C 132.084,259.952 133.084,258.285 132.5,255.5C 134.727,254.599 135.727,252.933 135.5,250.5C 137.25,249.341 138.25,247.674 138.5,245.5C 140.245,243.967 141.245,241.967 141.5,239.5C 143.223,238.395 144.223,236.728 144.5,234.5C 144.5,233.833 144.5,233.167 144.5,232.5C 146.25,231.341 147.25,229.674 147.5,227.5C 147.5,226.833 147.5,226.167 147.5,225.5C 150.084,224.952 151.084,223.285 150.5,220.5C 150.5,220.167 150.5,219.833 150.5,219.5C 152.408,218.514 153.408,216.848 153.5,214.5C 153.5,213.5 153.5,212.5 153.5,211.5C 155.614,210.216 156.614,208.216 156.5,205.5C 158.28,204.01 158.946,202.01 158.5,199.5C 158.433,198.041 158.766,196.708 159.5,195.5C 162.554,190.33 164.22,184.664 164.5,178.5C 164.401,175.763 164.735,173.096 165.5,170.5C 167.223,168.22 167.889,165.553 167.5,162.5C 167.5,162.167 167.5,161.833 167.5,161.5C 169.402,158.663 170.069,155.329 169.5,151.5C 170.051,148.193 170.384,144.86 170.5,141.5C 170.5,138.833 170.5,136.167 170.5,133.5C 171.29,132.391 171.79,131.058 172,129.5C 172.5,122.174 172.666,114.841 172.5,107.5C 173.6,84.9966 173.6,62.33 172.5,39.5C 173.103,34.3814 172.436,29.7147 170.5,25.5C 170.5,22.8333 170.5,20.1667 170.5,17.5C 170.5,11.5 170.5,5.5 170.5,-0.5 Z"/></g>
<g><path style="opacity:0.082" fill="#fee9b8" d="M 168.5,-0.5 C 169.167,-0.5 169.833,-0.5 170.5,-0.5C 170.5,5.5 170.5,11.5 170.5,17.5C 168.772,11.7616 168.105,5.76155 168.5,-0.5 Z"/></g>
<g><path style="opacity:1" fill="#fdd36c" d="M 170.5,25.5 C 172.436,29.7147 173.103,34.3814 172.5,39.5C 171.833,36.8333 171.167,34.1667 170.5,31.5C 170.5,29.5 170.5,27.5 170.5,25.5 Z"/></g>
<g><path style="opacity:0.324" fill="#fde3a0" d="M 170.5,31.5 C 171.167,34.1667 171.833,36.8333 172.5,39.5C 173.6,62.33 173.6,84.9966 172.5,107.5C 172.83,91.6578 172.496,75.9911 171.5,60.5C 171.425,50.8224 171.092,41.1557 170.5,31.5 Z"/></g>
<g><path style="opacity:0.267" fill="#fee9b6" d="M 171.5,60.5 C 172.496,75.9911 172.83,91.6578 172.5,107.5C 172.666,114.841 172.5,122.174 172,129.5C 171.79,131.058 171.29,132.391 170.5,133.5C 171.418,109.182 171.751,84.8487 171.5,60.5 Z"/></g>
<g><path style="opacity:0.11" fill="#feebbb" d="M 170.5,141.5 C 170.384,144.86 170.051,148.193 169.5,151.5C 169.167,151.5 168.833,151.5 168.5,151.5C 168.336,148.813 168.503,146.146 169,143.5C 169.278,142.584 169.778,141.918 170.5,141.5 Z"/></g>
<g><path style="opacity:1" fill="#fed470" d="M 168.5,151.5 C 168.833,151.5 169.167,151.5 169.5,151.5C 170.069,155.329 169.402,158.663 167.5,161.5C 167.46,158.119 167.793,154.786 168.5,151.5 Z"/></g>
<g><path style="opacity:0.247" fill="#fee5a9" d="M 167.5,162.5 C 167.889,165.553 167.223,168.22 165.5,170.5C 165.294,167.505 165.96,164.838 167.5,162.5 Z"/></g>
<g><path style="opacity:0.588" fill="#ffde90" d="M 164.5,178.5 C 164.22,184.664 162.554,190.33 159.5,195.5C 160.763,190.205 161.93,184.872 163,179.5C 163.383,178.944 163.883,178.611 164.5,178.5 Z"/></g>
<g><path style="opacity:0.467" fill="#fedd8f" d="M 158.5,199.5 C 158.946,202.01 158.28,204.01 156.5,205.5C 156.259,203.102 156.926,201.102 158.5,199.5 Z"/></g>
<g><path style="opacity:0.075" fill="#feeabb" d="M 156.5,205.5 C 156.614,208.216 155.614,210.216 153.5,211.5C 153.755,209.033 154.755,207.033 156.5,205.5 Z"/></g>
<g><path style="opacity:1" fill="#fedc8c" d="M 153.5,214.5 C 153.408,216.848 152.408,218.514 150.5,219.5C 150.592,217.152 151.592,215.486 153.5,214.5 Z"/></g>
<g><path style="opacity:0.369" fill="#ffe19d" d="M 150.5,220.5 C 151.084,223.285 150.084,224.952 147.5,225.5C 148.263,223.632 149.263,221.965 150.5,220.5 Z"/></g>
<g><path style="opacity:0.259" fill="#fee5a9" d="M 147.5,227.5 C 147.25,229.674 146.25,231.341 144.5,232.5C 144.75,230.326 145.75,228.659 147.5,227.5 Z"/></g>
<g><path style="opacity:1" fill="#ffd97f" d="M 144.5,234.5 C 144.223,236.728 143.223,238.395 141.5,239.5C 141.592,237.152 142.592,235.486 144.5,234.5 Z"/></g>
<g><path style="opacity:0.561" fill="#fed97f" d="M 141.5,239.5 C 141.245,241.967 140.245,243.967 138.5,245.5C 138.755,243.033 139.755,241.033 141.5,239.5 Z"/></g>
<g><path style="opacity:0.424" fill="#fedf98" d="M 138.5,245.5 C 138.25,247.674 137.25,249.341 135.5,250.5C 135.75,248.326 136.75,246.659 138.5,245.5 Z"/></g>
<g><path style="opacity:0.541" fill="#ffdd8f" d="M 135.5,250.5 C 135.727,252.933 134.727,254.599 132.5,255.5C 132.75,253.326 133.75,251.659 135.5,250.5 Z"/></g>
<g><path style="opacity:1" fill="#ffdb88" d="M 132.5,255.5 C 133.084,258.285 132.084,259.952 129.5,260.5C 129.75,258.326 130.75,256.659 132.5,255.5 Z"/></g>
<g><path style="opacity:0.2" fill="#ffe9b3" d="M 129.5,260.5 C 129.715,262.179 129.048,263.179 127.5,263.5C 127.427,261.973 128.094,260.973 129.5,260.5 Z"/></g>
<g><path style="opacity:1" fill="#ffd575" d="M 127.5,264.5 C 127.404,268.725 125.404,271.392 121.5,272.5C 123.232,269.562 125.232,266.896 127.5,264.5 Z"/></g>
<g><path style="opacity:0.322" fill="#ffe6ac" d="M 121.5,273.5 C 121.446,275.632 120.446,276.965 118.5,277.5C 119.026,275.77 120.026,274.436 121.5,273.5 Z"/></g>
<g><path style="opacity:0.157" fill="#ffe7ae" d="M 118.5,278.5 C 118.573,280.027 117.906,281.027 116.5,281.5C 116.285,279.821 116.952,278.821 118.5,278.5 Z"/></g>
<g><path style="opacity:0.424" fill="#ffe3a2" d="M 115.5,283.5 C 115.144,285.19 114.144,286.19 112.5,286.5C 112.856,284.81 113.856,283.81 115.5,283.5 Z"/></g>
<g><path style="opacity:0.145" fill="#ffebb9" d="M 112.5,287.5 C 112.5,288.833 111.833,289.5 110.5,289.5C 110.5,288.167 111.167,287.5 112.5,287.5 Z"/></g>
<g><path style="opacity:0.522" fill="#ffdf94" d="M 109.5,292.5 C 109.144,294.19 108.144,295.19 106.5,295.5C 106.856,293.81 107.856,292.81 109.5,292.5 Z"/></g>
<g><path style="opacity:0.275" fill="#fee8b3" d="M 106.5,295.5 C 106.573,297.027 105.906,298.027 104.5,298.5C 104.427,296.973 105.094,295.973 106.5,295.5 Z"/></g>
<g><path style="opacity:0.322" fill="#ffe4a4" d="M 104.5,298.5 C 104.155,301.198 102.822,303.198 100.5,304.5C 101.34,302.147 102.674,300.147 104.5,298.5 Z"/></g>
<g><path style="opacity:0.424" fill="#fedc8b" d="M 100.5,304.5 C 99.9898,307.674 98.3231,310.008 95.5,311.5C 96.7859,308.883 98.4525,306.55 100.5,304.5 Z"/></g>
<g><path style="opacity:0.549" fill="#ffdf93" d="M 95.5,311.5 C 95.4456,313.632 94.4456,314.965 92.5,315.5C 92.7376,313.596 93.7376,312.262 95.5,311.5 Z"/></g>
<g><path style="opacity:0.259" fill="#ffe8b2" d="M 89.5,319.5 C 89.573,321.027 88.9063,322.027 87.5,322.5C 87.427,320.973 88.0937,319.973 89.5,319.5 Z"/></g>
<g><path style="opacity:0.459" fill="#ffe19b" d="M 86.5,324.5 C 86.1436,326.19 85.1436,327.19 83.5,327.5C 83.8564,325.81 84.8564,324.81 86.5,324.5 Z"/></g>
<g><path style="opacity:0.227" fill="#ffe6a9" d="M 77.5,336.5 C 77.5,337.833 76.8333,338.5 75.5,338.5C 75.5,337.167 76.1667,336.5 77.5,336.5 Z"/></g>
<g><path style="opacity:1" fill="#ffda85" d="M 74.5,339.5 C 74.7409,342.034 73.7409,343.7 71.5,344.5C 72.1103,342.566 73.1103,340.899 74.5,339.5 Z"/></g>
<g><path style="opacity:0.451" fill="#fede93" d="M 71.5,344.5 C 71.573,346.027 70.9063,347.027 69.5,347.5C 69.427,345.973 70.0937,344.973 71.5,344.5 Z"/></g>
<g><path style="opacity:0.314" fill="#fee8b2" d="M 69.5,347.5 C 69.1436,349.19 68.1436,350.19 66.5,350.5C 66.8564,348.81 67.8564,347.81 69.5,347.5 Z"/></g>
<g><path style="opacity:0.424" fill="#fedf93" d="M 66.5,351.5 C 66.2624,353.404 65.2624,354.738 63.5,355.5C 63.7376,353.596 64.7376,352.262 66.5,351.5 Z"/></g>
<g><path style="opacity:0.294" fill="#ffe7b0" d="M 62.5,356.5 C 62.573,358.027 61.9063,359.027 60.5,359.5C 60.427,357.973 61.0937,356.973 62.5,356.5 Z"/></g>
<g><path style="opacity:0.314" fill="#fde6af" d="M 60.5,359.5 C 60.573,361.027 59.9063,362.027 58.5,362.5C 58.427,360.973 59.0937,359.973 60.5,359.5 Z"/></g>
<g><path style="opacity:0.404" fill="#fee4a7" d="M 57.5,364.5 C 57.1436,366.19 56.1436,367.19 54.5,367.5C 54.8564,365.81 55.8564,364.81 57.5,364.5 Z"/></g>
<g><path style="opacity:0.2" fill="#ffe7ae" d="M 54.5,368.5 C 54.5,369.833 53.8333,370.5 52.5,370.5C 52.5,369.167 53.1667,368.5 54.5,368.5 Z"/></g>
<g><path style="opacity:0.376" fill="#ffe3a2" d="M 51.5,372.5 C 51.4456,374.632 50.4456,375.965 48.5,376.5C 49.0256,374.77 50.0256,373.436 51.5,372.5 Z"/></g>
<g><path style="opacity:0.247" fill="#ffe5a7" d="M 48.5,377.5 C 48.5,378.833 47.8333,379.5 46.5,379.5C 46.5,378.167 47.1667,377.5 48.5,377.5 Z"/></g>
<g><path style="opacity:0.588" fill="#ffe09a" d="M 46.5,379.5 C 46.1298,382.267 44.7964,384.267 42.5,385.5C 43.3507,383.118 44.684,381.118 46.5,379.5 Z"/></g>
<g><path style="opacity:1" fill="#ffd677" d="M 42.5,385.5 C 42.53,389.286 40.8634,391.953 37.5,393.5C 39.1698,390.825 40.8365,388.159 42.5,385.5 Z"/></g>
<g><path style="opacity:0.424" fill="#fee097" d="M 37.5,394.5 C 37.2624,396.404 36.2624,397.738 34.5,398.5C 34.5544,396.368 35.5544,395.035 37.5,394.5 Z"/></g>
<g><path style="opacity:0.212" fill="#fee8b2" d="M 34.5,398.5 C 34.4456,400.632 33.4456,401.965 31.5,402.5C 32.0256,400.77 33.0256,399.436 34.5,398.5 Z"/></g>
<g><path style="opacity:1" fill="#ffdb89" d="M 31.5,403.5 C 31.4077,405.848 30.4077,407.514 28.5,408.5C 28.7497,406.326 29.7497,404.659 31.5,403.5 Z"/></g>
<g><path style="opacity:1" fill="#fede90" d="M 28.5,409.5 C 28.4456,411.632 27.4456,412.965 25.5,413.5C 25.5544,411.368 26.5544,410.035 28.5,409.5 Z"/></g>
<g><path style="opacity:1" fill="#fedb88" d="M 25.5,414.5 C 25.4077,416.848 24.4077,418.514 22.5,419.5C 22.5923,417.152 23.5923,415.486 25.5,414.5 Z"/></g>
<g><path style="opacity:0.569" fill="#feda85" d="M 22.5,419.5 C 22.9754,422.313 21.9754,424.313 19.5,425.5C 19.7549,423.033 20.7549,421.033 22.5,419.5 Z"/></g>
<g><path style="opacity:1" fill="#ffd880" d="M 19.5,425.5 C 19.9689,428.393 18.9689,430.393 16.5,431.5C 16.7549,429.033 17.7549,427.033 19.5,425.5 Z"/></g>
<g><path style="opacity:0.227" fill="#fee9b7" d="M 16.5,431.5 C 16.7148,433.179 16.0481,434.179 14.5,434.5C 14.427,432.973 15.0937,431.973 16.5,431.5 Z"/></g>
<g><path style="opacity:1" fill="#fed87c" d="M 14.5,435.5 C 14.821,438.577 13.821,440.91 11.5,442.5C 11.9348,439.843 12.9348,437.509 14.5,435.5 Z"/></g>
<g><path style="opacity:0.396" fill="#fee5a8" d="M 11.5,443.5 C 11.2451,445.967 10.2451,447.967 8.5,449.5C 8.75488,447.033 9.75488,445.033 11.5,443.5 Z"/></g>
<g><path style="opacity:0.369" fill="#fee5a8" d="M 8.5,451.5 C 8.24133,454.272 7.24133,456.605 5.5,458.5C 5.75867,455.728 6.75867,453.395 8.5,451.5 Z"/></g>
<g><path style="opacity:1" fill="#fee3a3" d="M 5.5,460.5 C 5.44329,464.029 4.44329,467.029 2.5,469.5C 2.74747,466.146 3.74747,463.146 5.5,460.5 Z"/></g>
<g><path style="opacity:1" fill="#fedd8d" d="M 2.5,472.5 C 2.28194,478.774 1.28194,484.774 -0.5,490.5C -0.5,487.5 -0.5,484.5 -0.5,481.5C 0.183984,478.408 1.18398,475.408 2.5,472.5 Z"/></g>
<g><path style="opacity:0.259" fill="#fee6ab" d="M -0.5,512.5 C 1.11843,516.575 2.11843,520.908 2.5,525.5C 1.88258,525.389 1.38258,525.056 1,524.5C 0.813823,521.964 0.313823,519.631 -0.5,517.5C -0.5,515.833 -0.5,514.167 -0.5,512.5 Z"/></g>
<g><path style="opacity:0.314" fill="#fee4a6" d="M 2.5,528.5 C 4.48245,530.597 5.48245,533.264 5.5,536.5C 3.60315,534.302 2.60315,531.636 2.5,528.5 Z"/></g>
<g><path style="opacity:0.247" fill="#fee6ae" d="M 5.5,538.5 C 7.53577,540.206 8.53577,542.539 8.5,545.5C 6.55164,543.68 5.55164,541.346 5.5,538.5 Z"/></g>
<g><path style="opacity:0.349" fill="#fee9b5" d="M 8.5,547.5 C 10.4077,548.486 11.4077,550.152 11.5,552.5C 9.95302,551.232 8.95302,549.565 8.5,547.5 Z"/></g>
<g><path style="opacity:0.275" fill="#fee6ad" d="M 11.5,553.5 C 13.0481,553.821 13.7148,554.821 13.5,556.5C 12.0937,556.027 11.427,555.027 11.5,553.5 Z"/></g>
<g><path style="opacity:0.314" fill="#ffe3a3" d="M 13.5,556.5 C 15.6138,557.784 16.6138,559.784 16.5,562.5C 14.9925,560.819 13.9925,558.819 13.5,556.5 Z"/></g>
<g><path style="opacity:0.431" fill="#fede92" d="M 16.5,562.5 C 18.4456,563.035 19.4456,564.368 19.5,566.5C 18.0256,565.564 17.0256,564.23 16.5,562.5 Z"/></g>
<g><path style="opacity:0.522" fill="#ffe098" d="M 19.5,567.5 C 21.9118,567.694 22.9118,569.027 22.5,571.5C 21.0256,570.564 20.0256,569.23 19.5,567.5 Z"/></g>
<g><path style="opacity:0.431" fill="#fee19a" d="M 22.5,571.5 C 24.1436,571.81 25.1436,572.81 25.5,574.5C 23.5,574.5 22.5,573.5 22.5,571.5 Z"/></g>
<g><path style="opacity:0.431" fill="#fee3a2" d="M 28.5,579.5 C 30.5,579.5 31.5,580.5 31.5,582.5C 29.8564,582.19 28.8564,581.19 28.5,579.5 Z"/></g>
<g><path style="opacity:0.267" fill="#fee5a8" d="M 31.5,582.5 C 33.1436,582.81 34.1436,583.81 34.5,585.5C 32.5,585.5 31.5,584.5 31.5,582.5 Z"/></g>
<g><path style="opacity:0.267" fill="#fee5a7" d="M 34.5,585.5 C 36.1436,585.81 37.1436,586.81 37.5,588.5C 35.5,588.5 34.5,587.5 34.5,585.5 Z"/></g>
<g><path style="opacity:0.267" fill="#fee5a7" d="M 37.5,588.5 C 39.1436,588.81 40.1436,589.81 40.5,591.5C 38.5,591.5 37.5,590.5 37.5,588.5 Z"/></g>
<g><path style="opacity:0.247" fill="#fee5a6" d="M 40.5,591.5 C 41.8333,591.5 42.5,592.167 42.5,593.5C 41.1667,593.5 40.5,592.833 40.5,591.5 Z"/></g>
<g><path style="opacity:0.286" fill="#fee7b0" d="M 43.5,594.5 C 45.0269,594.427 46.0269,595.094 46.5,596.5C 44.9731,596.573 43.9731,595.906 43.5,594.5 Z"/></g>
<g><path style="opacity:0.322" fill="#fde19c" d="M 48.5,598.5 C 50.0269,598.427 51.0269,599.094 51.5,600.5C 49.9731,600.573 48.9731,599.906 48.5,598.5 Z"/></g>
<g><path style="opacity:0.478" fill="#fedc8e" d="M 51.5,600.5 C 53.0269,600.427 54.0269,601.094 54.5,602.5C 52.9731,602.573 51.9731,601.906 51.5,600.5 Z"/></g>
<g><path style="opacity:0.384" fill="#fee09a" d="M 55.5,603.5 C 58.7191,604.069 61.0525,605.736 62.5,608.5C 59.883,607.214 57.5496,605.547 55.5,603.5 Z"/></g>
<g><path style="opacity:0.259" fill="#fee4a4" d="M 63.5,608.5 C 65.0269,608.427 66.0269,609.094 66.5,610.5C 64.9731,610.573 63.9731,609.906 63.5,608.5 Z"/></g>
<g><path style="opacity:0.286" fill="#fee8b3" d="M 74.5,614.5 C 75.7095,614.932 76.7095,615.599 77.5,616.5C 75.8212,616.715 74.8212,616.048 74.5,614.5 Z"/></g>
<g><path style="opacity:0.259" fill="#fee9b7" d="M 80.5,617.5 C 81.7095,617.932 82.7095,618.599 83.5,619.5C 81.8212,619.715 80.8212,619.048 80.5,617.5 Z"/></g>
<g><path style="opacity:1" fill="#ffd77d" d="M 86.5,620.5 C 89.1656,620.933 91.8323,621.433 94.5,622C 93.5842,622.278 92.9175,622.778 92.5,623.5C 90.0326,623.245 88.0326,622.245 86.5,620.5 Z"/></g>
<g><path style="opacity:1" fill="#fedc8a" d="M 93.5,623.5 C 96.5769,623.179 98.9103,624.179 100.5,626.5C 97.8427,626.065 95.5093,625.065 93.5,623.5 Z"/></g>
<g><path style="opacity:1" fill="#ffdc8b" d="M 100.5,626.5 C 107.058,627.478 113.058,629.478 118.5,632.5C 112.068,631.467 106.068,629.467 100.5,626.5 Z"/></g>
<g><path style="opacity:1" fill="#fee19c" d="M 118.5,632.5 C 121.01,632.054 123.01,632.72 124.5,634.5C 122.102,634.741 120.102,634.074 118.5,632.5 Z"/></g>
<g><path style="opacity:0.212" fill="#fee8b2" d="M 126.5,634.5 C 129.385,634.643 131.718,635.643 133.5,637.5C 130.728,637.241 128.395,636.241 126.5,634.5 Z"/></g>
<g><path style="opacity:0.267" fill="#fee8b4" d="M 137.5,637.5 C 139.801,638.06 142.134,638.56 144.5,639C 145.056,639.383 145.389,639.883 145.5,640.5C 143.199,639.94 140.866,639.44 138.5,639C 137.944,638.617 137.611,638.117 137.5,637.5 Z"/></g>
<g><path style="opacity:0.247" fill="#fee5a7" d="M 149.5,640.5 C 152.152,640.41 154.485,641.076 156.5,642.5C 154.473,642.662 152.473,642.495 150.5,642C 149.944,641.617 149.611,641.117 149.5,640.5 Z"/></g>
<g><path style="opacity:1" fill="#fedf94" d="M 162.5,643.5 C 166.163,643.952 169.83,644.452 173.5,645C 174.416,645.278 175.082,645.778 175.5,646.5C 170.813,646.449 166.479,645.449 162.5,643.5 Z"/></g>
<g><path style="opacity:1" fill="#fee199" d="M 178.5,646.5 C 182.79,646.855 186.79,647.855 190.5,649.5C 186.812,649.219 183.145,648.719 179.5,648C 178.944,647.617 178.611,647.117 178.5,646.5 Z"/></g>
<g><path style="opacity:0.247" fill="#fde5aa" d="M 193.5,649.5 C 195.898,649.259 197.898,649.926 199.5,651.5C 196.99,651.946 194.99,651.28 193.5,649.5 Z"/></g>
<g><path style="opacity:1" fill="#fee5a8" d="M 208.5,652.5 C 211.206,652.575 213.873,652.908 216.5,653.5C 216.5,653.833 216.5,654.167 216.5,654.5C 213.505,654.706 210.838,654.04 208.5,652.5 Z"/></g>
<g><path style="opacity:1" fill="#fed063" d="M 216.5,654.5 C 216.5,654.167 216.5,653.833 216.5,653.5C 220.012,652.945 223.012,653.612 225.5,655.5C 222.43,655.632 219.43,655.299 216.5,654.5 Z"/></g>
<g><path style="opacity:0.329" fill="#fee5a8" d="M 225.5,655.5 C 227.167,655.5 228.833,655.5 230.5,655.5C 230.833,656.167 231.167,656.833 231.5,657.5C 229.102,657.741 227.102,657.074 225.5,655.5 Z"/></g>
<g><path style="opacity:1" fill="#fed46d" d="M 230.5,655.5 C 233.456,656.137 236.456,656.637 239.5,657C 240.056,657.383 240.389,657.883 240.5,658.5C 239.833,658.5 239.167,658.5 238.5,658.5C 236.139,658.326 233.806,657.993 231.5,657.5C 231.167,656.833 230.833,656.167 230.5,655.5 Z"/></g>
<g><path style="opacity:0.118" fill="#feeaba" d="M 238.5,658.5 C 239.167,658.5 239.833,658.5 240.5,658.5C 243.228,658.171 245.562,658.837 247.5,660.5C 244.273,660.324 241.273,659.657 238.5,658.5 Z"/></g>
<g><path style="opacity:1" fill="#feebbb" d="M 254.5,661.5 C 257.082,661.025 259.082,661.692 260.5,663.5C 258.214,663.405 256.214,662.738 254.5,661.5 Z"/></g>
<g><path style="opacity:0.424" fill="#fee097" d="M 265.5,663.5 C 269.163,663.952 272.83,664.452 276.5,665C 277.056,665.383 277.389,665.883 277.5,666.5C 273.126,666.498 269.126,665.498 265.5,663.5 Z"/></g>
<g><path style="opacity:0.259" fill="#fee5a8" d="M 278.5,666.5 C 281.874,666.674 285.207,667.174 288.5,668C 289.056,668.383 289.389,668.883 289.5,669.5C 285.475,669.37 281.809,668.37 278.5,666.5 Z"/></g>
<g><path style="opacity:0.227" fill="#fee9b5" d="M 291.5,669.5 C 293.801,670.06 296.134,670.56 298.5,671C 299.056,671.383 299.389,671.883 299.5,672.5C 297.199,671.94 294.866,671.44 292.5,671C 291.944,670.617 291.611,670.117 291.5,669.5 Z"/></g>
<g><path style="opacity:0.173" fill="#fee6ac" d="M 303.5,672.5 C 305.698,672.875 307.698,673.542 309.5,674.5C 306.99,674.946 304.99,674.28 303.5,672.5 Z"/></g>
<g><path style="opacity:0.184" fill="#feebbd" d="M 313.5,675.5 C 315.403,675.796 317.07,676.463 318.5,677.5C 316.302,677.88 314.635,677.213 313.5,675.5 Z"/></g>
<g><path style="opacity:1" fill="#fedd8e" d="M 331.5,681.5 C 334.385,681.643 336.718,682.643 338.5,684.5C 335.728,684.241 333.395,683.241 331.5,681.5 Z"/></g>
<g><path style="opacity:0.22" fill="#fde9b8" d="M 339.5,684.5 C 341.027,684.427 342.027,685.094 342.5,686.5C 340.973,686.573 339.973,685.906 339.5,684.5 Z"/></g>
<g><path style="opacity:0.631" fill="#fed980" d="M 346.5,687.5 C 349.491,687.166 351.824,688.166 353.5,690.5C 350.728,690.241 348.395,689.241 346.5,687.5 Z"/></g>
<g><path style="opacity:0.294" fill="#fde5aa" d="M 353.5,690.5 C 355.027,690.427 356.027,691.094 356.5,692.5C 354.973,692.573 353.973,691.906 353.5,690.5 Z"/></g>
<g><path style="opacity:0.118" fill="#feeabc" d="M 357.5,692.5 C 359.153,692.66 360.486,693.326 361.5,694.5C 359.62,694.771 358.287,694.104 357.5,692.5 Z"/></g>
<g><path style="opacity:0.725" fill="#ffd77d" d="M 361.5,694.5 C 364.313,694.025 366.313,695.025 367.5,697.5C 365.216,696.971 363.216,695.971 361.5,694.5 Z"/></g>
<g><path style="opacity:0.294" fill="#fee4a7" d="M 369.5,698.5 C 371.632,698.554 372.965,699.554 373.5,701.5C 371.77,700.974 370.436,699.974 369.5,698.5 Z"/></g>
<g><path style="opacity:0.424" fill="#fee19c" d="M 374.5,701.5 C 376.848,701.592 378.514,702.592 379.5,704.5C 377.326,704.25 375.659,703.25 374.5,701.5 Z"/></g>
<g><path style="opacity:0.506" fill="#fee19a" d="M 384.5,707.5 C 386.404,707.738 387.738,708.738 388.5,710.5C 386.596,710.262 385.262,709.262 384.5,707.5 Z"/></g>
<g><path style="opacity:0.561" fill="#fede90" d="M 388.5,710.5 C 390.674,710.75 392.341,711.75 393.5,713.5C 391.326,713.25 389.659,712.25 388.5,710.5 Z"/></g>
<g><path style="opacity:0.506" fill="#ffe19f" d="M 393.5,713.5 C 395.19,713.856 396.19,714.856 396.5,716.5C 394.81,716.144 393.81,715.144 393.5,713.5 Z"/></g>
<g><path style="opacity:0.267" fill="#fde3a4" d="M 396.5,716.5 C 398.179,716.285 399.179,716.952 399.5,718.5C 397.973,718.573 396.973,717.906 396.5,716.5 Z"/></g>
<g><path style="opacity:0.212" fill="#ffe7b0" d="M 399.5,718.5 C 401.5,718.5 402.5,719.5 402.5,721.5C 401.167,720.833 400.167,719.833 399.5,718.5 Z"/></g>
<g><path style="opacity:1" fill="#ffdd90" d="M 403.5,721.5 C 406.689,722.589 409.022,724.589 410.5,727.5C 407.527,726.19 405.193,724.19 403.5,721.5 Z"/></g>
<g><path style="opacity:0.322" fill="#fee4a4" d="M 1098.5,730.5 C 1098.5,731.167 1098.5,731.833 1098.5,732.5C 1097.83,732.833 1097.17,733.167 1096.5,733.5C 1096.29,731.821 1096.95,730.821 1098.5,730.5 Z"/></g>
<g><path style="opacity:0.761" fill="#ffd679" d="M 414.5,731.5 C 417.204,731.67 418.871,733.003 419.5,735.5C 417.539,734.54 415.873,733.207 414.5,731.5 Z"/></g>
<g><path style="opacity:0.424" fill="#fedf93" d="M 1095.5,734.5 C 1094.21,737.117 1092.55,739.45 1090.5,741.5C 1091.07,738.281 1092.74,735.948 1095.5,734.5 Z"/></g>
<g><path style="opacity:0.267" fill="#fee4a4" d="M 420.5,736.5 C 421.833,736.5 422.5,737.167 422.5,738.5C 421.167,738.5 420.5,737.833 420.5,736.5 Z"/></g>
<g><path style="opacity:1" fill="#fedd90" d="M 422.5,738.5 C 424.5,738.5 425.5,739.5 425.5,741.5C 423.856,741.19 422.856,740.19 422.5,738.5 Z"/></g>
<g><path style="opacity:0.267" fill="#fde4a7" d="M 426.5,742.5 C 427.833,742.5 428.5,743.167 428.5,744.5C 427.167,744.5 426.5,743.833 426.5,742.5 Z"/></g>
<g><path style="opacity:0.329" fill="#fedd8f" d="M 1089.5,742.5 C 1089.57,744.027 1088.91,745.027 1087.5,745.5C 1087.43,743.973 1088.09,742.973 1089.5,742.5 Z"/></g>
<g><path style="opacity:0.184" fill="#fee6af" d="M 1086.5,747.5 C 1086.17,748.5 1085.5,749.167 1084.5,749.5C 1084.5,748.167 1085.17,747.5 1086.5,747.5 Z"/></g>
<g><path style="opacity:0.478" fill="#fed77b" d="M 429.5,745.5 C 432.397,745.981 434.064,747.648 434.5,750.5C 432.5,749.167 430.833,747.5 429.5,745.5 Z"/></g>
<g><path style="opacity:0.2" fill="#fee4a8" d="M 1083.5,750.5 C 1083.71,752.179 1083.05,753.179 1081.5,753.5C 1081.43,751.973 1082.09,750.973 1083.5,750.5 Z"/></g>
<g><path style="opacity:0.259" fill="#fee3a1" d="M 1081.5,753.5 C 1081.5,755.5 1080.5,756.5 1078.5,756.5C 1079.17,755.167 1080.17,754.167 1081.5,753.5 Z"/></g>
<g><path style="opacity:0.631" fill="#ffe097" d="M 439.5,756.5 C 441.997,757.129 443.33,758.796 443.5,761.5C 441.457,760.421 440.124,758.754 439.5,756.5 Z"/></g>
<g><path style="opacity:0.063" fill="#fee8b1" d="M 1078.5,757.5 C 1077.97,759.23 1076.97,760.564 1075.5,761.5C 1075.55,759.368 1076.55,758.035 1078.5,757.5 Z"/></g>
<g><path style="opacity:0.075" fill="#feeabb" d="M 1074.5,762.5 C 1074.5,763.833 1073.83,764.5 1072.5,764.5C 1072.83,763.5 1073.5,762.833 1074.5,762.5 Z"/></g>
<g><path style="opacity:1" fill="#ffd77a" d="M 443.5,761.5 C 447.914,762.916 450.581,765.916 451.5,770.5C 448.149,768.146 445.482,765.146 443.5,761.5 Z"/></g>
<g><path style="opacity:0.329" fill="#ffdf96" d="M 1072.5,765.5 C 1070.82,767.54 1069.16,769.54 1067.5,771.5C 1067.37,767.968 1069.03,765.968 1072.5,765.5 Z"/></g>
<g><path style="opacity:0.322" fill="#fde09a" d="M 452.5,771.5 C 453.833,771.5 454.5,772.167 454.5,773.5C 453.167,773.5 452.5,772.833 452.5,771.5 Z"/></g>
<g><path style="opacity:0.467" fill="#fedf96" d="M 454.5,774.5 C 456.5,774.5 457.5,775.5 457.5,777.5C 456.167,776.833 455.167,775.833 454.5,774.5 Z"/></g>
<g><path style="opacity:0.486" fill="#fee19b" d="M 457.5,778.5 C 459.5,778.5 460.5,779.5 460.5,781.5C 459.167,780.833 458.167,779.833 457.5,778.5 Z"/></g>
<g><path style="opacity:0.267" fill="#fde2a0" d="M 1060.5,779.5 C 1059.83,780.833 1058.83,781.833 1057.5,782.5C 1057.5,780.5 1058.5,779.5 1060.5,779.5 Z"/></g>
<g><path style="opacity:0.102" fill="#fee9b8" d="M 461.5,782.5 C 462.906,782.973 463.573,783.973 463.5,785.5C 462.094,785.027 461.427,784.027 461.5,782.5 Z"/></g>
<g><path style="opacity:0.314" fill="#fee19b" d="M 1057.5,782.5 C 1056.83,783.833 1055.83,784.833 1054.5,785.5C 1054.5,783.5 1055.5,782.5 1057.5,782.5 Z"/></g>
<g><path style="opacity:0.341" fill="#fee29e" d="M 463.5,785.5 C 465.144,785.81 466.144,786.81 466.5,788.5C 464.5,788.5 463.5,787.5 463.5,785.5 Z"/></g>
<g><path style="opacity:0.239" fill="#fee5a9" d="M 1054.5,785.5 C 1054.5,786.833 1053.83,787.5 1052.5,787.5C 1052.5,786.167 1053.17,785.5 1054.5,785.5 Z"/></g>
<g><path style="opacity:0.137" fill="#ffe7ae" d="M 1051.5,788.5 C 1051.5,789.833 1050.83,790.5 1049.5,790.5C 1049.83,789.5 1050.5,788.833 1051.5,788.5 Z"/></g>
<g><path style="opacity:1" fill="#ffdd8f" d="M 467.5,791.5 C 470.352,791.936 472.019,793.603 472.5,796.5C 470.548,795.215 468.882,793.549 467.5,791.5 Z"/></g>
<g><path style="opacity:0.118" fill="#fde6af" d="M 1048.5,791.5 C 1048.5,792.833 1047.83,793.5 1046.5,793.5C 1046.83,792.5 1047.5,791.833 1048.5,791.5 Z"/></g>
<g><path style="opacity:0.165" fill="#fee5ac" d="M 1046.5,794.5 C 1046.03,795.906 1045.03,796.573 1043.5,796.5C 1043.97,795.094 1044.97,794.427 1046.5,794.5 Z"/></g>
<g><path style="opacity:0.384" fill="#fee4a5" d="M 472.5,797.5 C 474.144,797.81 475.144,798.81 475.5,800.5C 473.856,800.19 472.856,799.19 472.5,797.5 Z"/></g>
<g><path style="opacity:0.118" fill="#fee8b4" d="M 1043.5,797.5 C 1043.03,798.906 1042.03,799.573 1040.5,799.5C 1040.97,798.094 1041.97,797.427 1043.5,797.5 Z"/></g>
<g><path style="opacity:0.357" fill="#fede8e" d="M 475.5,800.5 C 476.906,800.973 477.573,801.973 477.5,803.5C 476.094,803.027 475.427,802.027 475.5,800.5 Z"/></g>
<g><path style="opacity:0.129" fill="#feebbf" d="M 1040.5,800.5 C 1040.17,801.5 1039.5,802.167 1038.5,802.5C 1038.5,801.167 1039.17,800.5 1040.5,800.5 Z"/></g>
<g><path style="opacity:0.09" fill="#feecc1" d="M 1037.5,803.5 C 1037.17,804.5 1036.5,805.167 1035.5,805.5C 1035.5,804.167 1036.17,803.5 1037.5,803.5 Z"/></g>
<g><path style="opacity:1" fill="#ffd676" d="M 478.5,805.5 C 481.705,806.13 483.371,808.13 483.5,811.5C 481.838,809.637 480.171,807.637 478.5,805.5 Z"/></g>
<g><path style="opacity:0.047" fill="#feefcb" d="M 1034.5,806.5 C 1034.17,807.5 1033.5,808.167 1032.5,808.5C 1032.5,807.167 1033.17,806.5 1034.5,806.5 Z"/></g>
<g><path style="opacity:0.267" fill="#fde29f" d="M 1028.5,811.5 C 1027.83,812.833 1026.83,813.833 1025.5,814.5C 1025.5,812.5 1026.5,811.5 1028.5,811.5 Z"/></g>
<g><path style="opacity:0.145" fill="#fde8b3" d="M 1025.5,814.5 C 1025.17,815.5 1024.5,816.167 1023.5,816.5C 1023.5,815.167 1024.17,814.5 1025.5,814.5 Z"/></g>
<g><path style="opacity:0.22" fill="#fee7af" d="M 487.5,817.5 C 488.833,817.5 489.5,818.167 489.5,819.5C 488.167,819.5 487.5,818.833 487.5,817.5 Z"/></g>
<g><path style="opacity:0.267" fill="#fde2a0" d="M 490.5,820.5 C 491.906,820.973 492.573,821.973 492.5,823.5C 490.952,823.179 490.285,822.179 490.5,820.5 Z"/></g>
<g><path style="opacity:0.173" fill="#fee3a2" d="M 1017.5,821.5 C 1017.03,822.906 1016.03,823.573 1014.5,823.5C 1014.97,822.094 1015.97,821.427 1017.5,821.5 Z"/></g>
<g><path style="opacity:0.376" fill="#fee3a2" d="M 1014.5,823.5 C 1014.5,825.5 1013.5,826.5 1011.5,826.5C 1011.86,824.81 1012.86,823.81 1014.5,823.5 Z"/></g>
<g><path style="opacity:0.137" fill="#fde6af" d="M 1011.5,826.5 C 1011.03,827.906 1010.03,828.573 1008.5,828.5C 1008.97,827.094 1009.97,826.427 1011.5,826.5 Z"/></g>
<g><path style="opacity:0.349" fill="#ffdd8d" d="M 494.5,826.5 C 496.531,827.539 497.864,829.205 498.5,831.5C 496.478,830.493 495.145,828.826 494.5,826.5 Z"/></g>
<g><path style="opacity:0.118" fill="#fee5a8" d="M 1005.5,831.5 C 1004.42,833.543 1002.75,834.876 1000.5,835.5C 1001.54,833.469 1003.21,832.136 1005.5,831.5 Z"/></g>
<g><path style="opacity:0.267" fill="#fee6ae" d="M 498.5,832.5 C 500.144,832.81 501.144,833.81 501.5,835.5C 499.856,835.19 498.856,834.19 498.5,832.5 Z"/></g>
<g><path style="opacity:0.184" fill="#fee4a5" d="M 1000.5,835.5 C 1000.03,836.906 999.027,837.573 997.5,837.5C 997.973,836.094 998.973,835.427 1000.5,835.5 Z"/></g>
<g><path style="opacity:0.027" fill="#feecc3" d="M 502.5,837.5 C 503.906,837.973 504.573,838.973 504.5,840.5C 503.094,840.027 502.427,839.027 502.5,837.5 Z"/></g>
<g><path style="opacity:0.259" fill="#fee8b3" d="M 997.5,837.5 C 997.5,839.5 996.5,840.5 994.5,840.5C 994.81,838.856 995.81,837.856 997.5,837.5 Z"/></g>
<g><path style="opacity:0.09" fill="#fee7b4" d="M 993.5,840.5 C 993.5,841.833 992.833,842.5 991.5,842.5C 991.833,841.5 992.5,840.833 993.5,840.5 Z"/></g>
<g><path style="opacity:0.431" fill="#fee19a" d="M 991.5,842.5 C 990.415,844.587 988.749,845.92 986.5,846.5C 987.539,844.469 989.205,843.136 991.5,842.5 Z"/></g>
<g><path style="opacity:0.027" fill="#feebbb" d="M 985.5,847.5 C 985.027,848.906 984.027,849.573 982.5,849.5C 982.973,848.094 983.973,847.427 985.5,847.5 Z"/></g>
<g><path style="opacity:0.102" fill="#fee9b8" d="M 982.5,849.5 C 982.027,850.906 981.027,851.573 979.5,851.5C 979.973,850.094 980.973,849.427 982.5,849.5 Z"/></g>
<g><path style="opacity:0.173" fill="#fee5a9" d="M 512.5,850.5 C 514.446,851.035 515.446,852.368 515.5,854.5C 513.554,853.965 512.554,852.632 512.5,850.5 Z"/></g>
<g><path style="opacity:0.145" fill="#fee9b8" d="M 978.5,852.5 C 978.167,853.5 977.5,854.167 976.5,854.5C 976.5,853.167 977.167,852.5 978.5,852.5 Z"/></g>
<g><path style="opacity:0.424" fill="#ffdf93" d="M 515.5,854.5 C 517.446,855.035 518.446,856.368 518.5,858.5C 517.026,857.564 516.026,856.23 515.5,854.5 Z"/></g>
<g><path style="opacity:0.212" fill="#fee6ab" d="M 974.5,855.5 C 974.027,856.906 973.027,857.573 971.5,857.5C 971.973,856.094 972.973,855.427 974.5,855.5 Z"/></g>
<g><path style="opacity:0.349" fill="#fee4a6" d="M 518.5,858.5 C 520.144,858.81 521.144,859.81 521.5,861.5C 519.5,861.5 518.5,860.5 518.5,858.5 Z"/></g>
<g><path style="opacity:0.075" fill="#ffe4a8" d="M 970.5,858.5 C 968.342,860.993 965.676,862.66 962.5,863.5C 964.629,861.05 967.296,859.383 970.5,858.5 Z"/></g>
<g><path style="opacity:0.145" fill="#ffe6b0" d="M 521.5,862.5 C 523.144,862.81 524.144,863.81 524.5,865.5C 522.856,865.19 521.856,864.19 521.5,862.5 Z"/></g>
<g><path style="opacity:0.212" fill="#feeaba" d="M 962.5,864.5 C 962.027,865.906 961.027,866.573 959.5,866.5C 959.821,864.952 960.821,864.285 962.5,864.5 Z"/></g>
<g><path style="opacity:0.431" fill="#fee3a2" d="M 524.5,866.5 C 526.5,866.5 527.5,867.5 527.5,869.5C 525.856,869.19 524.856,868.19 524.5,866.5 Z"/></g>
<g><path style="opacity:0.533" fill="#fedc8d" d="M 958.5,866.5 C 957.965,868.446 956.632,869.446 954.5,869.5C 955.211,867.799 956.545,866.799 958.5,866.5 Z"/></g>
<g><path style="opacity:0.294" fill="#fee4a7" d="M 527.5,869.5 C 529.048,869.821 529.715,870.821 529.5,872.5C 528.094,872.027 527.427,871.027 527.5,869.5 Z"/></g>
<g><path style="opacity:0.329" fill="#fee2a1" d="M 953.5,870.5 C 953.027,871.906 952.027,872.573 950.5,872.5C 950.821,870.952 951.821,870.285 953.5,870.5 Z"/></g>
<g><path style="opacity:0.09" fill="#feeabb" d="M 950.5,872.5 C 950.027,873.906 949.027,874.573 947.5,874.5C 947.973,873.094 948.973,872.427 950.5,872.5 Z"/></g>
<g><path style="opacity:0.027" fill="#ffe9b7" d="M 944.5,876.5 C 944.027,877.906 943.027,878.573 941.5,878.5C 941.973,877.094 942.973,876.427 944.5,876.5 Z"/></g>
<g><path style="opacity:0.451" fill="#fee19b" d="M 940.5,878.5 C 939.965,880.446 938.632,881.446 936.5,881.5C 937.211,879.799 938.545,878.799 940.5,878.5 Z"/></g>
<g><path style="opacity:0.145" fill="#fee8b1" d="M 936.5,881.5 C 936.027,882.906 935.027,883.573 933.5,883.5C 933.973,882.094 934.973,881.427 936.5,881.5 Z"/></g>
<g><path style="opacity:1" fill="#ffe097" d="M 540.5,884.5 C 542.935,885.27 544.269,886.937 544.5,889.5C 542.413,888.415 541.08,886.749 540.5,884.5 Z"/></g>
<g><path style="opacity:0.384" fill="#fee098" d="M 930.5,885.5 C 929.71,886.401 928.71,887.068 927.5,887.5C 927.821,885.952 928.821,885.285 930.5,885.5 Z"/></g>
<g><path style="opacity:0.212" fill="#fde9b6" d="M 927.5,887.5 C 926.71,888.401 925.71,889.068 924.5,889.5C 924.821,887.952 925.821,887.285 927.5,887.5 Z"/></g>
<g><path style="opacity:0.227" fill="#fde5ac" d="M 545.5,890.5 C 546.833,890.5 547.5,891.167 547.5,892.5C 546.167,892.5 545.5,891.833 545.5,890.5 Z"/></g>
<g><path style="opacity:0.624" fill="#fedc8d" d="M 922.5,890.5 C 919.78,892.527 916.78,894.193 913.5,895.5C 915.654,892.401 918.654,890.734 922.5,890.5 Z"/></g>
<g><path style="opacity:0.212" fill="#fee7af" d="M 548.5,893.5 C 549.833,893.5 550.5,894.167 550.5,895.5C 549.167,895.5 548.5,894.833 548.5,893.5 Z"/></g>
<g><path style="opacity:0.267" fill="#fde3a4" d="M 550.5,896.5 C 552.179,896.285 553.179,896.952 553.5,898.5C 551.973,898.573 550.973,897.906 550.5,896.5 Z"/></g>
<g><path style="opacity:0.267" fill="#fee19b" d="M 912.5,896.5 C 911.486,897.674 910.153,898.34 908.5,898.5C 909.287,896.896 910.62,896.229 912.5,896.5 Z"/></g>
<g><path style="opacity:0.055" fill="#feeab9" d="M 907.5,898.5 C 907.19,900.144 906.19,901.144 904.5,901.5C 904.81,899.856 905.81,898.856 907.5,898.5 Z"/></g>
<g><path style="opacity:0.267" fill="#fde3a4" d="M 553.5,899.5 C 555.179,899.285 556.179,899.952 556.5,901.5C 554.973,901.573 553.973,900.906 553.5,899.5 Z"/></g>
<g><path style="opacity:0.275" fill="#ffe7ae" d="M 901.5,902.5 C 901.027,903.906 900.027,904.573 898.5,904.5C 898.821,902.952 899.821,902.285 901.5,902.5 Z"/></g>
<g><path style="opacity:0.027" fill="#fee6aa" d="M 556.5,901.5 C 558.5,901.5 559.5,902.5 559.5,904.5C 557.856,904.19 556.856,903.19 556.5,901.5 Z"/></g>
<g><path style="opacity:0.259" fill="#fee3a2" d="M 559.5,904.5 C 561.5,904.5 562.5,905.5 562.5,907.5C 560.5,907.5 559.5,906.5 559.5,904.5 Z"/></g>
<g><path style="opacity:0.09" fill="#fee6ad" d="M 897.5,904.5 C 896.341,906.25 894.674,907.25 892.5,907.5C 893.486,905.592 895.152,904.592 897.5,904.5 Z"/></g>
<g><path style="opacity:0.118" fill="#feeaba" d="M 562.5,907.5 C 564.5,907.5 565.5,908.5 565.5,910.5C 563.81,910.144 562.81,909.144 562.5,907.5 Z"/></g>
<g><path style="opacity:0.145" fill="#ffe6ac" d="M 891.5,907.5 C 890.564,908.974 889.23,909.974 887.5,910.5C 888.035,908.554 889.368,907.554 891.5,907.5 Z"/></g>
<g><path style="opacity:0.431" fill="#fee29d" d="M 886.5,910.5 C 885.232,912.047 883.565,913.047 881.5,913.5C 882.486,911.592 884.152,910.592 886.5,910.5 Z"/></g>
<g><path style="opacity:0.533" fill="#fede8f" d="M 569.5,913.5 C 571.404,913.738 572.738,914.738 573.5,916.5C 571.596,916.262 570.262,915.262 569.5,913.5 Z"/></g>
<g><path style="opacity:0.431" fill="#fee4a2" d="M 880.5,913.5 C 879.232,915.047 877.565,916.047 875.5,916.5C 876.486,914.592 878.152,913.592 880.5,913.5 Z"/></g>
<g><path style="opacity:0.576" fill="#fede92" d="M 573.5,916.5 C 575.19,916.856 576.19,917.856 576.5,919.5C 574.81,919.144 573.81,918.144 573.5,916.5 Z"/></g>
<g><path style="opacity:0.294" fill="#ffe3a3" d="M 874.5,916.5 C 873.486,917.674 872.153,918.34 870.5,918.5C 871.287,916.896 872.62,916.229 874.5,916.5 Z"/></g>
<g><path style="opacity:0.376" fill="#fee3a1" d="M 576.5,919.5 C 578.027,919.427 579.027,920.094 579.5,921.5C 577.973,921.573 576.973,920.906 576.5,919.5 Z"/></g>
<g><path style="opacity:0.651" fill="#fedb86" d="M 869.5,918.5 C 867.388,920.771 864.721,922.104 861.5,922.5C 863.531,920.245 866.198,918.912 869.5,918.5 Z"/></g>
<g><path style="opacity:0.212" fill="#fde9b5" d="M 861.5,922.5 C 860.71,923.401 859.71,924.068 858.5,924.5C 858.821,922.952 859.821,922.285 861.5,922.5 Z"/></g>
<g><path style="opacity:0.439" fill="#fedf96" d="M 580.5,922.5 C 583.674,923.01 586.008,924.677 587.5,927.5C 584.883,926.214 582.55,924.547 580.5,922.5 Z"/></g>
<g><path style="opacity:0.267" fill="#fee19a" d="M 855.5,925.5 C 854.07,926.537 852.403,927.204 850.5,927.5C 851.635,925.787 853.302,925.12 855.5,925.5 Z"/></g>
<g><path style="opacity:1" fill="#fee2a1" d="M 848.5,928.5 C 847.22,929.931 845.553,930.598 843.5,930.5C 844.552,928.744 846.219,928.077 848.5,928.5 Z"/></g>
<g><path style="opacity:0.267" fill="#fde19c" d="M 588.5,928.5 C 590.179,928.285 591.179,928.952 591.5,930.5C 590.29,930.068 589.29,929.401 588.5,928.5 Z"/></g>
<g><path style="opacity:0.349" fill="#fee2a0" d="M 592.5,930.5 C 594.404,930.738 595.738,931.738 596.5,933.5C 594.596,933.262 593.262,932.262 592.5,930.5 Z"/></g>
<g><path style="opacity:0.008" fill="#feedc5" d="M 842.5,930.5 C 841.232,932.047 839.565,933.047 837.5,933.5C 838.486,931.592 840.152,930.592 842.5,930.5 Z"/></g>
<g><path style="opacity:0.561" fill="#fedb87" d="M 597.5,933.5 C 599.674,933.75 601.341,934.75 602.5,936.5C 600.152,936.408 598.486,935.408 597.5,933.5 Z"/></g>
<g><path style="opacity:0.02" fill="#feeab9" d="M 834.5,933.5 C 833.015,935.231 831.015,936.231 828.5,936.5C 829.895,934.621 831.895,933.621 834.5,933.5 Z"/></g>
<g><path style="opacity:0.027" fill="#feebbf" d="M 602.5,936.5 C 603.71,936.932 604.71,937.599 605.5,938.5C 603.821,938.715 602.821,938.048 602.5,936.5 Z"/></g>
<g><path style="opacity:0.082" fill="#fee5ab" d="M 826.5,936.5 C 824.605,938.241 822.272,939.241 819.5,939.5C 821.206,937.464 823.539,936.464 826.5,936.5 Z"/></g>
<g><path style="opacity:0.569" fill="#ffda86" d="M 608.5,939.5 C 610.933,939.273 612.599,940.273 613.5,942.5C 611.152,942.408 609.486,941.408 608.5,939.5 Z"/></g>
<g><path style="opacity:0.376" fill="#fee099" d="M 817.5,939.5 C 815.302,941.397 812.636,942.397 809.5,942.5C 811.792,940.733 814.458,939.733 817.5,939.5 Z"/></g>
<g><path style="opacity:1" fill="#fedb87" d="M 614.5,942.5 C 617.105,942.621 619.105,943.621 620.5,945.5C 617.895,945.379 615.895,944.379 614.5,942.5 Z"/></g>
<g><path style="opacity:0.063" fill="#fee9b5" d="M 808.5,942.5 C 807.365,944.213 805.698,944.88 803.5,944.5C 804.78,943.069 806.447,942.402 808.5,942.5 Z"/></g>
<g><path style="opacity:0.118" fill="#feecc2" d="M 620.5,945.5 C 622.179,945.285 623.179,945.952 623.5,947.5C 622.29,947.068 621.29,946.401 620.5,945.5 Z"/></g>
<g><path style="opacity:0.192" fill="#fee7b0" d="M 798.5,945.5 C 797.713,947.104 796.38,947.771 794.5,947.5C 795.183,945.824 796.517,945.157 798.5,945.5 Z"/></g>
<g><path style="opacity:0.478" fill="#fedc8e" d="M 627.5,948.5 C 629.527,948.338 631.527,948.505 633.5,949C 634.056,949.383 634.389,949.883 634.5,950.5C 631.848,950.59 629.515,949.924 627.5,948.5 Z"/></g>
<g><path style="opacity:0.212" fill="#fee5aa" d="M 788.5,948.5 C 786.786,949.738 784.786,950.405 782.5,950.5C 783.918,948.692 785.918,948.025 788.5,948.5 Z"/></g>
<g><path style="opacity:1" fill="#fee3a1" d="M 634.5,950.5 C 638.286,950.32 641.619,951.32 644.5,953.5C 640.838,953.277 637.505,952.277 634.5,950.5 Z"/></g>
<g><path style="opacity:0.259" fill="#ffe19b" d="M 776.5,951.5 C 772.07,953.046 767.404,954.046 762.5,954.5C 762.97,953.307 763.97,952.64 765.5,952.5C 769.132,951.754 772.798,951.421 776.5,951.5 Z"/></g>
<g><path style="opacity:1" fill="#fee099" d="M 762.5,954.5 C 758.733,955.795 754.733,956.461 750.5,956.5C 754.029,954.577 758.029,953.911 762.5,954.5 Z"/></g>
<g><path style="opacity:0.357" fill="#fee5a9" d="M 646.5,953.5 C 651.275,953.647 655.608,954.647 659.5,956.5C 654.813,956.449 650.479,955.449 646.5,953.5 Z"/></g>
<g><path style="opacity:0.1" fill="#feecc0" d="M 663.5,956.5 C 667.5,956.833 671.5,957.167 675.5,957.5C 675.5,957.833 675.5,958.167 675.5,958.5C 671.183,958.917 667.183,958.25 663.5,956.5 Z"/></g>
<g><path style="opacity:0.063" fill="#feebbe" d="M 746.5,956.5 C 741.909,957.892 737.243,958.892 732.5,959.5C 730.833,959.5 729.167,959.5 727.5,959.5C 727.5,959.167 727.5,958.833 727.5,958.5C 733.666,957.602 740,956.936 746.5,956.5 Z"/></g>
<g><path style="opacity:0.467" fill="#fede91" d="M 675.5,958.5 C 675.5,958.167 675.5,957.833 675.5,957.5C 678.5,957.5 681.5,957.5 684.5,957.5C 686.5,958.167 688.5,958.833 690.5,959.5C 686.167,959.5 681.833,959.5 677.5,959.5C 677.158,958.662 676.492,958.328 675.5,958.5 Z"/></g>
<g><path style="opacity:0.659" fill="#fdce5b" d="M 684.5,957.5 C 698.821,958.242 713.154,958.575 727.5,958.5C 727.5,958.833 727.5,959.167 727.5,959.5C 715.167,959.5 702.833,959.5 690.5,959.5C 688.5,958.833 686.5,958.167 684.5,957.5 Z"/></g>
</svg>
